# Blender v3.0.1 OBJ File: 'room.blend'
# www.blender.org
o Cube.005
v -7.758005 2.451547 5.504971
v -7.758005 2.391947 0.980974
v -7.758005 2.391947 5.504971
v -7.758005 2.451547 0.980974
v -3.234009 2.391947 0.980974
v -3.234009 2.451547 0.980974
v -3.234009 2.391947 5.504971
v -3.234009 2.451547 5.504971
vn -1.0000 0.0000 0.0000
vn 0.0000 0.0000 -1.0000
vn 1.0000 0.0000 0.0000
vn 0.0000 0.0000 1.0000
vn 0.0000 -1.0000 -0.0000
vn 0.0000 1.0000 0.0000
s 1
f 1//1 2//1 3//1
f 4//2 5//2 2//2
f 6//3 7//3 5//3
f 8//4 3//4 7//4
f 5//5 3//5 2//5
f 4//6 8//6 6//6
f 1//1 4//1 2//1
f 4//2 6//2 5//2
f 6//3 8//3 7//3
f 8//4 1//4 3//4
f 5//5 7//5 3//5
f 4//6 1//6 8//6
