# Blender v3.0.1 OBJ File: 'room.blend'
# www.blender.org
o Cube.009
v -7.000070 0.609969 4.377943
v -7.565077 0.532647 4.377943
v -7.000070 0.532647 4.377943
v -7.565077 0.609969 4.377943
v -7.565076 0.532647 1.961238
v -6.558177 0.532647 1.961238
v -6.558177 0.609969 1.900106
v -6.558177 0.609969 1.961238
v -6.558177 0.532647 4.377943
v -6.745935 0.532647 1.961238
v -6.745935 0.532647 4.377943
v -6.745935 0.609969 4.377943
v -6.745935 0.609969 1.961238
v -7.000069 0.609969 1.961238
v -7.565076 0.609969 1.961238
v -7.000069 0.532647 1.961238
v -6.558177 0.609969 4.377943
v -6.558177 0.532647 4.438818
v -6.745935 0.609969 1.900106
v -6.558177 0.532647 1.900106
v -6.745935 0.532647 1.900106
v -6.558177 0.609969 4.438818
v -6.745935 0.532647 4.438818
v -6.745935 0.609969 4.438818
vn 0.0000 0.0000 1.0000
vn -1.0000 0.0000 -0.0000
vn 1.0000 0.0000 0.0000
vn 0.0000 -1.0000 -0.0000
vn 0.0000 1.0000 0.0000
vn 0.0000 0.0000 -1.0000
s 1
f 1//1 2//1 3//1
f 4//2 5//2 2//2
f 6//3 7//3 8//3
f 8//3 9//3 6//3
f 10//4 9//4 11//4
f 12//5 8//5 13//5
f 4//5 14//5 15//5
f 5//4 3//4 2//4
f 15//6 16//6 5//6
f 12//1 3//1 11//1
f 17//3 18//3 9//3
f 1//5 13//5 14//5
f 16//4 11//4 3//4
f 14//6 10//6 16//6
f 19//6 20//6 21//6
f 13//2 21//2 10//2
f 10//4 20//4 6//4
f 8//5 19//5 13//5
f 22//1 23//1 18//1
f 11//2 24//2 12//2
f 9//4 23//4 11//4
f 12//5 22//5 17//5
f 1//1 4//1 2//1
f 4//2 15//2 5//2
f 6//3 20//3 7//3
f 8//3 17//3 9//3
f 10//4 6//4 9//4
f 12//5 17//5 8//5
f 4//5 1//5 14//5
f 5//4 16//4 3//4
f 15//6 14//6 16//6
f 12//1 1//1 3//1
f 17//3 22//3 18//3
f 1//5 12//5 13//5
f 16//4 10//4 11//4
f 14//6 13//6 10//6
f 19//6 7//6 20//6
f 13//2 19//2 21//2
f 10//4 21//4 20//4
f 8//5 7//5 19//5
f 22//1 24//1 23//1
f 11//2 23//2 24//2
f 9//4 18//4 23//4
f 12//5 24//5 22//5
